<?xml version="1.0" encoding="iso-8859-1"?>
<!-- Generator: Adobe Illustrator 19.0.0, SVG Export Plug-In . SVG Version: 6.00 Build 0)  -->
<svg version="1.1" id="Capa_1" xmlns="http://www.w3.org/2000/svg" xmlns:xlink="http://www.w3.org/1999/xlink" x="0px" y="0px"
	 viewBox="0 0 480 480" style="enable-background:new 0 0 480 480;" xml:space="preserve">
<g>
	<g>
		<path style="fill:white; stroke:white;" d="M278.944,17.577c-5.568-2.656-12.128-1.952-16.928,1.92L106.368,144.009H32c-17.632,0-32,14.368-32,32v128
			c0,17.632,14.368,32,32,32h74.368l155.616,124.512c2.912,2.304,6.464,3.488,10.016,3.488c2.368,0,4.736-0.512,6.944-1.568
			c5.536-2.688,9.056-8.288,9.056-14.432v-416C288,25.865,284.48,20.265,278.944,17.577z M96,304.009H32v-128h64V304.009z
			 M256,414.697l-128-102.4V167.721l128-102.4V414.697z"/>
	</g>
</g>
</svg>
